<mxfile host="app.diagrams.net" agent="Mozilla/5.0 (Windows NT 10.0; Win64; x64) AppleWebKit/537.36 (KHTML, like Gecko) Chrome/136.0.0.0 Safari/537.36" version="27.1.1">
  <diagram name="Página-1" id="9jEyobCT0BkcxAEAIK_s">
    <mxGraphModel dx="1232" dy="1701" grid="1" gridSize="10" guides="1" tooltips="1" connect="1" arrows="1" fold="1" page="1" pageScale="1" pageWidth="827" pageHeight="1169" math="0" shadow="0">
      <root>
        <mxCell id="0" />
        <mxCell id="1" parent="0" />
        <mxCell id="v7YIWJluji6fNq2sV5AN-1" value="Usuario" style="shape=umlActor;verticalLabelPosition=bottom;verticalAlign=top;html=1;" vertex="1" parent="1">
          <mxGeometry x="80" width="30" height="60" as="geometry" />
        </mxCell>
        <mxCell id="v7YIWJluji6fNq2sV5AN-2" value="" style="endArrow=none;dashed=1;html=1;rounded=0;" edge="1" parent="1" source="v7YIWJluji6fNq2sV5AN-56">
          <mxGeometry width="50" height="50" relative="1" as="geometry">
            <mxPoint x="90" y="790" as="sourcePoint" />
            <mxPoint x="94.5" y="80" as="targetPoint" />
          </mxGeometry>
        </mxCell>
        <mxCell id="v7YIWJluji6fNq2sV5AN-3" value="Interface&amp;nbsp;&lt;div&gt;opticar&lt;/div&gt;" style="shape=umlBoundary;whiteSpace=wrap;html=1;" vertex="1" parent="1">
          <mxGeometry x="200" width="90" height="70" as="geometry" />
        </mxCell>
        <mxCell id="v7YIWJluji6fNq2sV5AN-4" value="" style="endArrow=none;dashed=1;html=1;rounded=0;" edge="1" parent="1" source="v7YIWJluji6fNq2sV5AN-12">
          <mxGeometry width="50" height="50" relative="1" as="geometry">
            <mxPoint x="250" y="542" as="sourcePoint" />
            <mxPoint x="250" y="70" as="targetPoint" />
          </mxGeometry>
        </mxCell>
        <mxCell id="v7YIWJluji6fNq2sV5AN-5" value="Backend&lt;br&gt;Opticar" style="ellipse;shape=umlControl;whiteSpace=wrap;html=1;" vertex="1" parent="1">
          <mxGeometry x="400" y="-10" width="70" height="80" as="geometry" />
        </mxCell>
        <mxCell id="v7YIWJluji6fNq2sV5AN-6" value="" style="endArrow=none;dashed=1;html=1;rounded=0;" edge="1" parent="1" source="v7YIWJluji6fNq2sV5AN-25">
          <mxGeometry width="50" height="50" relative="1" as="geometry">
            <mxPoint x="434.5" y="542" as="sourcePoint" />
            <mxPoint x="434.5" y="70" as="targetPoint" />
          </mxGeometry>
        </mxCell>
        <mxCell id="v7YIWJluji6fNq2sV5AN-7" value="Sistema" style="html=1;whiteSpace=wrap;" vertex="1" parent="1">
          <mxGeometry x="570" y="5" width="110" height="50" as="geometry" />
        </mxCell>
        <mxCell id="v7YIWJluji6fNq2sV5AN-8" value="" style="endArrow=none;dashed=1;html=1;rounded=0;" edge="1" parent="1" source="v7YIWJluji6fNq2sV5AN-30">
          <mxGeometry width="50" height="50" relative="1" as="geometry">
            <mxPoint x="624.5" y="527" as="sourcePoint" />
            <mxPoint x="624.5" y="55" as="targetPoint" />
          </mxGeometry>
        </mxCell>
        <mxCell id="v7YIWJluji6fNq2sV5AN-9" value="" style="html=1;points=[[0,0,0,0,5],[0,1,0,0,-5],[1,0,0,0,5],[1,1,0,0,-5]];perimeter=orthogonalPerimeter;outlineConnect=0;targetShapes=umlLifeline;portConstraint=eastwest;newEdgeStyle={&quot;curved&quot;:0,&quot;rounded&quot;:0};" vertex="1" parent="1">
          <mxGeometry x="90" y="90" width="10" height="90" as="geometry" />
        </mxCell>
        <mxCell id="v7YIWJluji6fNq2sV5AN-13" value="" style="endArrow=none;dashed=1;html=1;rounded=0;" edge="1" parent="1">
          <mxGeometry width="50" height="50" relative="1" as="geometry">
            <mxPoint x="250" y="690" as="sourcePoint" />
            <mxPoint x="249.52" y="190" as="targetPoint" />
          </mxGeometry>
        </mxCell>
        <mxCell id="v7YIWJluji6fNq2sV5AN-12" value="" style="html=1;points=[[0,0,0,0,5],[0,1,0,0,-5],[1,0,0,0,5],[1,1,0,0,-5]];perimeter=orthogonalPerimeter;outlineConnect=0;targetShapes=umlLifeline;portConstraint=eastwest;newEdgeStyle={&quot;curved&quot;:0,&quot;rounded&quot;:0};" vertex="1" parent="1">
          <mxGeometry x="240" y="110" width="10" height="70" as="geometry" />
        </mxCell>
        <mxCell id="v7YIWJluji6fNq2sV5AN-14" value="" style="endArrow=classic;html=1;rounded=0;" edge="1" parent="1">
          <mxGeometry width="50" height="50" relative="1" as="geometry">
            <mxPoint x="100" y="110" as="sourcePoint" />
            <mxPoint x="230" y="110" as="targetPoint" />
          </mxGeometry>
        </mxCell>
        <mxCell id="v7YIWJluji6fNq2sV5AN-16" value="&amp;nbsp;ACESSO&amp;nbsp;&lt;div&gt;AO SITE&amp;nbsp;&lt;/div&gt;" style="edgeLabel;html=1;align=center;verticalAlign=middle;resizable=0;points=[];" vertex="1" connectable="0" parent="v7YIWJluji6fNq2sV5AN-14">
          <mxGeometry x="0.1443" y="1" relative="1" as="geometry">
            <mxPoint as="offset" />
          </mxGeometry>
        </mxCell>
        <mxCell id="v7YIWJluji6fNq2sV5AN-20" value="&amp;nbsp;SOLICITAÇÃO&lt;div&gt;DE&amp;nbsp;&lt;span style=&quot;background-color: light-dark(#ffffff, var(--ge-dark-color, #121212)); color: light-dark(rgb(0, 0, 0), rgb(255, 255, 255));&quot;&gt;LOGIN&lt;/span&gt;&lt;/div&gt;" style="endArrow=open;endSize=12;dashed=1;html=1;rounded=0;" edge="1" parent="1">
          <mxGeometry width="160" relative="1" as="geometry">
            <mxPoint x="240" y="174.76" as="sourcePoint" />
            <mxPoint x="110" y="175.1" as="targetPoint" />
          </mxGeometry>
        </mxCell>
        <mxCell id="v7YIWJluji6fNq2sV5AN-21" value="" style="html=1;points=[[0,0,0,0,5],[0,1,0,0,-5],[1,0,0,0,5],[1,1,0,0,-5]];perimeter=orthogonalPerimeter;outlineConnect=0;targetShapes=umlLifeline;portConstraint=eastwest;newEdgeStyle={&quot;curved&quot;:0,&quot;rounded&quot;:0};" vertex="1" parent="1">
          <mxGeometry x="240" y="255" width="10" height="95" as="geometry" />
        </mxCell>
        <mxCell id="v7YIWJluji6fNq2sV5AN-22" value="" style="endArrow=classic;html=1;rounded=0;" edge="1" parent="1">
          <mxGeometry width="50" height="50" relative="1" as="geometry">
            <mxPoint x="100" y="254.41" as="sourcePoint" />
            <mxPoint x="230" y="254.41" as="targetPoint" />
          </mxGeometry>
        </mxCell>
        <mxCell id="v7YIWJluji6fNq2sV5AN-23" value="INSERÇÃO&amp;nbsp;&lt;div&gt;DE DADOS&lt;/div&gt;" style="edgeLabel;html=1;align=center;verticalAlign=middle;resizable=0;points=[];" vertex="1" connectable="0" parent="v7YIWJluji6fNq2sV5AN-22">
          <mxGeometry x="0.1443" y="1" relative="1" as="geometry">
            <mxPoint x="-14" y="1" as="offset" />
          </mxGeometry>
        </mxCell>
        <mxCell id="v7YIWJluji6fNq2sV5AN-26" value="" style="endArrow=none;dashed=1;html=1;rounded=0;" edge="1" parent="1" target="v7YIWJluji6fNq2sV5AN-25">
          <mxGeometry width="50" height="50" relative="1" as="geometry">
            <mxPoint x="435" y="690" as="sourcePoint" />
            <mxPoint x="434.5" y="70" as="targetPoint" />
          </mxGeometry>
        </mxCell>
        <mxCell id="v7YIWJluji6fNq2sV5AN-27" value="" style="endArrow=classic;html=1;rounded=0;" edge="1" parent="1">
          <mxGeometry width="50" height="50" relative="1" as="geometry">
            <mxPoint x="260" y="270" as="sourcePoint" />
            <mxPoint x="430" y="270" as="targetPoint" />
          </mxGeometry>
        </mxCell>
        <mxCell id="v7YIWJluji6fNq2sV5AN-28" value="CONFERÊNCIA&lt;div&gt;DE LOGIN&lt;/div&gt;" style="edgeLabel;html=1;align=center;verticalAlign=middle;resizable=0;points=[];" vertex="1" connectable="0" parent="v7YIWJluji6fNq2sV5AN-27">
          <mxGeometry x="0.1443" y="1" relative="1" as="geometry">
            <mxPoint x="-14" y="1" as="offset" />
          </mxGeometry>
        </mxCell>
        <mxCell id="v7YIWJluji6fNq2sV5AN-29" value="Divisão de cargo" style="shape=umlFrame;whiteSpace=wrap;html=1;pointerEvents=0;width=160;height=20;" vertex="1" parent="1">
          <mxGeometry x="70" y="210" width="700" height="320" as="geometry" />
        </mxCell>
        <mxCell id="v7YIWJluji6fNq2sV5AN-31" value="" style="endArrow=none;dashed=1;html=1;rounded=0;" edge="1" parent="1" source="v7YIWJluji6fNq2sV5AN-44" target="v7YIWJluji6fNq2sV5AN-30">
          <mxGeometry width="50" height="50" relative="1" as="geometry">
            <mxPoint x="624.5" y="527" as="sourcePoint" />
            <mxPoint x="624.5" y="55" as="targetPoint" />
          </mxGeometry>
        </mxCell>
        <mxCell id="v7YIWJluji6fNq2sV5AN-30" value="" style="html=1;points=[[0,0,0,0,5],[0,1,0,0,-5],[1,0,0,0,5],[1,1,0,0,-5]];perimeter=orthogonalPerimeter;outlineConnect=0;targetShapes=umlLifeline;portConstraint=eastwest;newEdgeStyle={&quot;curved&quot;:0,&quot;rounded&quot;:0};" vertex="1" parent="1">
          <mxGeometry x="620" y="280" width="10" height="70" as="geometry" />
        </mxCell>
        <mxCell id="v7YIWJluji6fNq2sV5AN-32" value="" style="endArrow=classic;html=1;rounded=0;" edge="1" parent="1">
          <mxGeometry width="50" height="50" relative="1" as="geometry">
            <mxPoint x="450" y="280" as="sourcePoint" />
            <mxPoint x="620" y="280" as="targetPoint" />
          </mxGeometry>
        </mxCell>
        <mxCell id="v7YIWJluji6fNq2sV5AN-33" value="LOGIN == OK" style="edgeLabel;html=1;align=center;verticalAlign=middle;resizable=0;points=[];" vertex="1" connectable="0" parent="v7YIWJluji6fNq2sV5AN-32">
          <mxGeometry x="0.1443" y="1" relative="1" as="geometry">
            <mxPoint x="-14" y="1" as="offset" />
          </mxGeometry>
        </mxCell>
        <mxCell id="v7YIWJluji6fNq2sV5AN-34" value="If( usuario == TRUE )" style="text;html=1;align=center;verticalAlign=middle;resizable=0;points=[];autosize=1;strokeColor=none;fillColor=none;" vertex="1" parent="1">
          <mxGeometry x="430" y="240" width="140" height="30" as="geometry" />
        </mxCell>
        <mxCell id="v7YIWJluji6fNq2sV5AN-36" value="" style="html=1;points=[[0,0,0,0,5],[0,1,0,0,-5],[1,0,0,0,5],[1,1,0,0,-5]];perimeter=orthogonalPerimeter;outlineConnect=0;targetShapes=umlLifeline;portConstraint=eastwest;newEdgeStyle={&quot;curved&quot;:0,&quot;rounded&quot;:0};" vertex="1" parent="1">
          <mxGeometry x="630" y="305" width="10" height="40" as="geometry" />
        </mxCell>
        <mxCell id="v7YIWJluji6fNq2sV5AN-37" value="REDIRECIONAR&lt;div&gt;RESPECTIVA&amp;nbsp;&lt;/div&gt;&lt;div&gt;TELA&lt;/div&gt;" style="html=1;align=left;spacingLeft=2;endArrow=block;rounded=0;edgeStyle=orthogonalEdgeStyle;curved=0;rounded=0;exitX=1;exitY=0.071;exitDx=0;exitDy=0;exitPerimeter=0;" edge="1" target="v7YIWJluji6fNq2sV5AN-36" parent="1" source="v7YIWJluji6fNq2sV5AN-30">
          <mxGeometry x="0.1111" relative="1" as="geometry">
            <mxPoint x="635" y="285" as="sourcePoint" />
            <Array as="points">
              <mxPoint x="665" y="285" />
              <mxPoint x="665" y="315" />
            </Array>
            <mxPoint as="offset" />
          </mxGeometry>
        </mxCell>
        <mxCell id="v7YIWJluji6fNq2sV5AN-40" value="SOLICITAÇÃO&lt;div&gt;APROVADA&lt;/div&gt;" style="endArrow=open;endSize=12;dashed=1;html=1;rounded=0;" edge="1" parent="1" target="v7YIWJluji6fNq2sV5AN-25">
          <mxGeometry width="160" relative="1" as="geometry">
            <mxPoint x="620" y="345" as="sourcePoint" />
            <mxPoint x="780" y="345" as="targetPoint" />
          </mxGeometry>
        </mxCell>
        <mxCell id="v7YIWJluji6fNq2sV5AN-25" value="" style="html=1;points=[[0,0,0,0,5],[0,1,0,0,-5],[1,0,0,0,5],[1,1,0,0,-5]];perimeter=orthogonalPerimeter;outlineConnect=0;targetShapes=umlLifeline;portConstraint=eastwest;newEdgeStyle={&quot;curved&quot;:0,&quot;rounded&quot;:0};" vertex="1" parent="1">
          <mxGeometry x="430" y="270" width="10" height="200" as="geometry" />
        </mxCell>
        <mxCell id="v7YIWJluji6fNq2sV5AN-41" value="Else" style="text;html=1;align=center;verticalAlign=middle;resizable=0;points=[];autosize=1;strokeColor=none;fillColor=none;" vertex="1" parent="1">
          <mxGeometry x="435" y="368" width="50" height="30" as="geometry" />
        </mxCell>
        <mxCell id="v7YIWJluji6fNq2sV5AN-42" value="" style="endArrow=classic;html=1;rounded=0;" edge="1" parent="1" target="v7YIWJluji6fNq2sV5AN-44">
          <mxGeometry width="50" height="50" relative="1" as="geometry">
            <mxPoint x="440" y="397.17" as="sourcePoint" />
            <mxPoint x="610" y="397" as="targetPoint" />
          </mxGeometry>
        </mxCell>
        <mxCell id="v7YIWJluji6fNq2sV5AN-43" value="&amp;nbsp;!LOGIN == OK&amp;nbsp;" style="edgeLabel;html=1;align=center;verticalAlign=middle;resizable=0;points=[];" vertex="1" connectable="0" parent="v7YIWJluji6fNq2sV5AN-42">
          <mxGeometry x="0.1443" y="1" relative="1" as="geometry">
            <mxPoint x="-14" y="1" as="offset" />
          </mxGeometry>
        </mxCell>
        <mxCell id="v7YIWJluji6fNq2sV5AN-45" value="" style="endArrow=none;dashed=1;html=1;rounded=0;" edge="1" parent="1" target="v7YIWJluji6fNq2sV5AN-44">
          <mxGeometry width="50" height="50" relative="1" as="geometry">
            <mxPoint x="625" y="690" as="sourcePoint" />
            <mxPoint x="625" y="350" as="targetPoint" />
          </mxGeometry>
        </mxCell>
        <mxCell id="v7YIWJluji6fNq2sV5AN-44" value="" style="html=1;points=[[0,0,0,0,5],[0,1,0,0,-5],[1,0,0,0,5],[1,1,0,0,-5]];perimeter=orthogonalPerimeter;outlineConnect=0;targetShapes=umlLifeline;portConstraint=eastwest;newEdgeStyle={&quot;curved&quot;:0,&quot;rounded&quot;:0};" vertex="1" parent="1">
          <mxGeometry x="620" y="398" width="10" height="70" as="geometry" />
        </mxCell>
        <mxCell id="v7YIWJluji6fNq2sV5AN-46" value="LOGIN&lt;div&gt;INVÁLIDO&lt;/div&gt;" style="endArrow=open;endSize=12;dashed=1;html=1;rounded=0;" edge="1" parent="1">
          <mxGeometry x="0.1111" width="160" relative="1" as="geometry">
            <mxPoint x="615" y="468" as="sourcePoint" />
            <mxPoint x="440" y="468" as="targetPoint" />
            <mxPoint as="offset" />
          </mxGeometry>
        </mxCell>
        <mxCell id="v7YIWJluji6fNq2sV5AN-47" value="loop" style="shape=umlFrame;whiteSpace=wrap;html=1;pointerEvents=0;width=120;height=20;" vertex="1" parent="1">
          <mxGeometry x="420" y="220" width="340" height="285" as="geometry" />
        </mxCell>
        <mxCell id="v7YIWJluji6fNq2sV5AN-49" value="&amp;nbsp;" style="endArrow=open;endSize=12;dashed=1;html=1;rounded=0;" edge="1" parent="1">
          <mxGeometry width="160" relative="1" as="geometry">
            <mxPoint x="429.52" y="345" as="sourcePoint" />
            <mxPoint x="250" y="345" as="targetPoint" />
          </mxGeometry>
        </mxCell>
        <mxCell id="v7YIWJluji6fNq2sV5AN-51" value="&amp;nbsp;CARREGAMENTO&lt;div&gt;DE TELA&lt;/div&gt;" style="edgeLabel;html=1;align=center;verticalAlign=middle;resizable=0;points=[];" vertex="1" connectable="0" parent="v7YIWJluji6fNq2sV5AN-49">
          <mxGeometry x="0.1287" y="1" relative="1" as="geometry">
            <mxPoint x="-8" y="-4" as="offset" />
          </mxGeometry>
        </mxCell>
        <mxCell id="v7YIWJluji6fNq2sV5AN-50" value="" style="endArrow=none;dashed=1;html=1;dashPattern=1 3;strokeWidth=4;rounded=0;exitX=-0.004;exitY=0.536;exitDx=0;exitDy=0;exitPerimeter=0;entryX=1;entryY=0.526;entryDx=0;entryDy=0;entryPerimeter=0;strokeColor=#000000;" edge="1" parent="1" source="v7YIWJluji6fNq2sV5AN-47" target="v7YIWJluji6fNq2sV5AN-47">
          <mxGeometry width="50" height="50" relative="1" as="geometry">
            <mxPoint x="550" y="350" as="sourcePoint" />
            <mxPoint x="600" y="300" as="targetPoint" />
          </mxGeometry>
        </mxCell>
        <mxCell id="v7YIWJluji6fNq2sV5AN-52" value="loop" style="shape=umlFrame;whiteSpace=wrap;html=1;pointerEvents=0;" vertex="1" parent="1">
          <mxGeometry x="10" y="90" width="260" height="110" as="geometry" />
        </mxCell>
        <mxCell id="v7YIWJluji6fNq2sV5AN-53" value="&amp;nbsp;" style="endArrow=open;endSize=12;dashed=1;html=1;rounded=0;" edge="1" parent="1" target="v7YIWJluji6fNq2sV5AN-56">
          <mxGeometry width="160" relative="1" as="geometry">
            <mxPoint x="239.99999999999997" y="350" as="sourcePoint" />
            <mxPoint x="110" y="350" as="targetPoint" />
          </mxGeometry>
        </mxCell>
        <mxCell id="v7YIWJluji6fNq2sV5AN-54" value="&amp;nbsp;LOGIN&amp;nbsp;&lt;div&gt;REALIZADO&lt;/div&gt;" style="edgeLabel;html=1;align=center;verticalAlign=middle;resizable=0;points=[];" vertex="1" connectable="0" parent="v7YIWJluji6fNq2sV5AN-53">
          <mxGeometry x="0.1287" y="1" relative="1" as="geometry">
            <mxPoint x="21" y="-1" as="offset" />
          </mxGeometry>
        </mxCell>
        <mxCell id="v7YIWJluji6fNq2sV5AN-57" value="" style="endArrow=none;dashed=1;html=1;rounded=0;" edge="1" parent="1" target="v7YIWJluji6fNq2sV5AN-56">
          <mxGeometry width="50" height="50" relative="1" as="geometry">
            <mxPoint x="90" y="690" as="sourcePoint" />
            <mxPoint x="94.5" y="80" as="targetPoint" />
          </mxGeometry>
        </mxCell>
        <mxCell id="v7YIWJluji6fNq2sV5AN-56" value="" style="html=1;points=[[0,0,0,0,5],[0,1,0,0,-5],[1,0,0,0,5],[1,1,0,0,-5]];perimeter=orthogonalPerimeter;outlineConnect=0;targetShapes=umlLifeline;portConstraint=eastwest;newEdgeStyle={&quot;curved&quot;:0,&quot;rounded&quot;:0};" vertex="1" parent="1">
          <mxGeometry x="90" y="255" width="10" height="95" as="geometry" />
        </mxCell>
      </root>
    </mxGraphModel>
  </diagram>
</mxfile>
